<?xml version="1.0" encoding="UTF-8" standalone="no"?>
<!-- Created with Inkscape (http://www.inkscape.org/) -->

<svg
   xmlns:dc="http://purl.org/dc/elements/1.1/"
   xmlns:cc="http://creativecommons.org/ns#"
   xmlns:rdf="http://www.w3.org/1999/02/22-rdf-syntax-ns#"
   xmlns:svg="http://www.w3.org/2000/svg"
   xmlns="http://www.w3.org/2000/svg"
   xmlns:xlink="http://www.w3.org/1999/xlink"
   xmlns:sodipodi="http://sodipodi.sourceforge.net/DTD/sodipodi-0.dtd"
   xmlns:inkscape="http://www.inkscape.org/namespaces/inkscape"
   sodipodi:docname="LinguineOne.svg"
   inkscape:version="0.48.2 r9819"
   version="1.1"
   id="svg2"
   height="800"
   width="800">
  <sodipodi:namedview
     id="base"
     pagecolor="#ffffff"
     bordercolor="#666666"
     borderopacity="1.0"
     inkscape:pageopacity="0.0"
     inkscape:pageshadow="2"
     inkscape:zoom="1"
     inkscape:cx="428.81002"
     inkscape:cy="394.65022"
     inkscape:document-units="px"
     inkscape:current-layer="layer1"
     showgrid="false"
     showguides="true"
     inkscape:guide-bbox="true"
     inkscape:window-width="1345"
     inkscape:window-height="1030"
     inkscape:window-x="163"
     inkscape:window-y="0"
     inkscape:window-maximized="0" />
  <defs
     id="defs4">
    <linearGradient
       id="linearGradient6143">
      <stop
         style="stop-color:#868dff;stop-opacity:1;"
         offset="0"
         id="stop6145" />
      <stop
         style="stop-color:#000cff;stop-opacity:1;"
         offset="1"
         id="stop6147" />
    </linearGradient>
    <linearGradient
       inkscape:collect="always"
       xlink:href="#linearGradient6143"
       id="linearGradient6149"
       x1="382.8064"
       y1="17.806406"
       x2="382.8064"
       y2="780.19922"
       gradientUnits="userSpaceOnUse"
       gradientTransform="matrix(1,0,0,1.0071895,-3,249.73996)" />
    <filter
       id="filter6179"
       inkscape:label="Drop shadow"
       width="1.5"
       height="1.5"
       x="-.25"
       y="-.25">
      <feGaussianBlur
         id="feGaussianBlur6181"
         in="SourceAlpha"
         stdDeviation="2"
         result="blur" />
      <feColorMatrix
         id="feColorMatrix6183"
         result="bluralpha"
         type="matrix"
         values="1 0 0 0 0 0 1 0 0 0 0 0 1 0 0 0 0 0 0.5 0 " />
      <feOffset
         id="feOffset6185"
         in="bluralpha"
         dx="6"
         dy="18"
         result="offsetBlur" />
      <feMerge
         id="feMerge6187">
        <feMergeNode
           id="feMergeNode6189"
           in="offsetBlur" />
        <feMergeNode
           id="feMergeNode6191"
           in="SourceGraphic" />
      </feMerge>
    </filter>
  </defs>
  <metadata
     id="metadata7">
    <rdf:RDF>
      <cc:Work
         rdf:about="">
        <dc:format>image/svg+xml</dc:format>
        <dc:type
           rdf:resource="http://purl.org/dc/dcmitype/StillImage" />
        <dc:title></dc:title>
      </cc:Work>
    </rdf:RDF>
  </metadata>
  <g
     transform="translate(0,-252.36218)"
     id="layer1"
     inkscape:groupmode="layer"
     inkscape:label="Layer 1">
    <rect
       style="fill:url(#linearGradient6149);fill-opacity:1;fill-rule:evenodd;stroke:#000000;stroke-width:1.00358832;stroke-linecap:round;stroke-linejoin:round;stroke-miterlimit:4;stroke-opacity:1;stroke-dasharray:none;filter:url(#filter6179)"
       id="rect6141"
       width="737"
       height="770.5"
       x="24"
       y="266.86218"
       rx="100.83551"
       ry="101.56047"
       transform="matrix(1.0298467,-0.0072267,0,1,-6.7163213,-2.1635188)" />
    <path
       style="fill:#000000;fill-opacity:1;fill-rule:evenodd;stroke:none"
       d="M 400 23 C 310.252 23 238 95.614713 238 185.8125 L 238 385.1875 C 238 475.38529 310.252 548 400 548 L 406 548 C 485.0891 548 550.58812 491.62096 565.03125 416.5 L 437.5 416.5 L 437.5 392.5 L 567.8125 392.5 C 567.91808 390.07637 568 387.63819 568 385.1875 L 568 368.90625 L 437.5 368.90625 L 437.5 344.90625 L 568 344.90625 L 568 321.3125 L 437.5 321.3125 L 437.5 297.3125 L 568 297.3125 L 568 273.6875 L 437.5 273.6875 L 437.5 249.6875 L 568 249.6875 L 568 226.09375 L 437.5 226.09375 L 437.5 202.09375 L 568 202.09375 L 568 185.8125 C 568 183.36181 567.91808 180.92362 567.8125 178.5 L 437.5 178.5 L 437.5 154.5 L 565.03125 154.5 C 550.58812 79.379157 485.0891 23 406 23 L 400 23 z "
       transform="translate(0,252.36218)"
       id="rect2985" />
    <path
       sodipodi:open="true"
       sodipodi:end="9.4286449"
       sodipodi:start="6.2795975"
       transform="matrix(1.0347732,0,0,1.0672523,-30.052602,50.3001)"
       d="M 670.99837,540.11023 A 252.5,248 0 1 1 166.00189,540.041"
       sodipodi:ry="248"
       sodipodi:rx="252.5"
       sodipodi:cy="541"
       sodipodi:cx="418.5"
       id="path2987"
       style="fill:none;stroke:#000000;stroke-width:38.0630722;stroke-linecap:butt;stroke-linejoin:miter;stroke-miterlimit:4;stroke-opacity:1;stroke-dasharray:none"
       sodipodi:type="arc" />
    <rect
       ry="0"
       rx="0"
       y="892.36218"
       x="383"
       height="104"
       width="40"
       id="rect3765"
       style="fill:#000000;fill-opacity:1;fill-rule:evenodd;stroke:none" />
    <rect
       y="965.36218"
       x="237.5"
       height="40"
       width="331"
       id="rect3767"
       style="fill:#000000;fill-opacity:1;fill-rule:evenodd;stroke:none" />
    <rect
       ry="0"
       rx="0"
       y="524.36218"
       x="644"
       height="104"
       width="40"
       id="rect3765-1"
       style="fill:#000000;fill-opacity:1;fill-rule:evenodd;stroke:none" />
    <rect
       ry="0"
       rx="0"
       y="523.36218"
       x="122"
       height="104"
       width="40"
       id="rect3765-4"
       style="fill:#000000;fill-opacity:1;fill-rule:evenodd;stroke:none" />
    <g
       id="g5459"
       transform="translate(-6,55)">
      <path
         id="path5461"
         d="m 138,364.36218 c 0,0 78,99 232,103 2.9e-4,10e-6 5.9e-4,2e-5 8.8e-4,2e-5 C 524.0002,471.36201 576,427.36218 576,427.36218 c 0,0 1.3e-4,-7e-5 3.8e-4,-2.2e-4 0.1283,-0.0748 32.98218,-19.24509 41.99962,-42.99978 6e-5,-1.7e-4 1.3e-4,-3.4e-4 1.9e-4,-5.1e-4 8.43573,-22.22232 16.99963,-46.99964 -7.00019,-66.99949 -1.8e-4,-1.5e-4 -3.7e-4,-3.1e-4 -5.5e-4,-4.6e-4 C 586.99902,297.36281 523,338.36218 523,338.36218 c 0,0 0,0 0,0 0,0 -214,177 -310,516 0,0 0,0 0,0 -24,70 -90,81 -90,81 0,0 0,0 0,0 0,0 -18,10 -42,-5 0,0 0,0 0,0 -24,-15 0,-63 0,-63 0,0 0,0 0,0 0,0 10,-14 38,-31 0,0 0,0 0,0 28,-17 107,-5 107,-5 0,0 0,0 0,0 0,0 57,20 76,34 0,0 0,0 0,0 19,14 81,43 109,45 0,0 0,0 0,0 28,2 91,16 163,-2 0,0 0,0 0,0 72,-18 67,-21 67,-21 0,0 0,0 0,0 0,0 23,-5 51,-44"
         style="fill:none;stroke:#ffd700;stroke-width:15;stroke-linecap:butt;stroke-linejoin:miter;stroke-miterlimit:4;stroke-opacity:1;stroke-dasharray:none"
         inkscape:connector-curvature="0" />
      <path
         id="path5463"
         d="m 138.98148,365.70843 c 0,0 78,99 232,103 2.6e-4,10e-6 5.2e-4,2e-5 7.8e-4,2e-5 153.9994,3.99984 205.99922,-40.00002 205.99922,-40.00002 0,0 1.1e-4,-6e-5 3.4e-4,-1.9e-4 0.11404,-0.0665 32.98026,-19.23995 41.99966,-42.99981 6e-5,-1.5e-4 1.2e-4,-3e-4 1.7e-4,-4.5e-4 8.43574,-22.22233 16.99967,-46.99968 -7.00017,-66.99955 -1.6e-4,-1.3e-4 -3.2e-4,-2.7e-4 -4.9e-4,-4e-4 -24.00038,-19.99904 -87.99951,21.0004 -87.99951,21.0004 0,0 -2e-5,2e-5 -7e-5,6e-5 -0.0464,0.0384 -214.01035,177.03673 -309.99993,515.99994 -1e-5,3e-5 -2e-5,6e-5 -3e-5,9e-5 -24.00002,69.99992 -89.99997,80.99991 -89.99997,80.99991 0,0 -3e-5,2e-5 -9e-5,6e-5 -0.0155,0.009 -18.01033,9.99343 -41.999909,-5.00006 -2e-5,-10e-6 -4.1e-5,-2e-5 -6.1e-5,-3e-5 -23.999898,-15.00005 6.1e-5,-62.99997 6.1e-5,-62.99997 0,0 1.7e-5,-2e-5 5.1e-5,-7e-5 0.0087,-0.0121 10.012102,-14.0073 37.999948,-30.99993 2e-5,-10e-6 5e-5,-2e-5 7e-5,-4e-5 28.00007,-16.99994 106.99993,-4.99996 106.99993,-4.99996 0,0 3e-5,10e-6 7e-5,3e-5 0.0247,0.009 57.00405,20.00301 75.99993,33.99997 2e-5,2e-5 3e-5,3e-5 5e-5,4e-5 19.00006,14.00001 80.99997,42.99997 108.99995,44.99996 2e-5,10e-6 5e-5,10e-6 7e-5,10e-6 28.00004,2.00002 90.99999,15.99998 162.99993,-2.00001 3e-5,0 6e-5,-10e-6 9e-5,-2e-5 71.99991,-17.99998 66.99991,-20.99998 66.99991,-20.99998 0,0 10e-6,0 3e-5,0 0.01,-0.002 23.00605,-5.00846 50.99997,-44"
         style="fill:none;stroke:#ffd400;stroke-width:15;stroke-linecap:butt;stroke-linejoin:miter;stroke-miterlimit:4;stroke-opacity:1;stroke-dasharray:none"
         inkscape:connector-curvature="0" />
      <path
         id="path5465"
         d="m 139.96296,367.05469 c 0,0 78,99 232,103 2.3e-4,0 4.6e-4,1e-5 6.9e-4,2e-5 153.99947,3.99985 205.99931,-40.00002 205.99931,-40.00002 0,0 1e-4,-6e-5 3e-4,-1.7e-4 0.0998,-0.0582 32.97834,-19.23481 41.9997,-42.99983 5e-5,-1.3e-4 1e-4,-2.6e-4 1.5e-4,-4e-4 8.43574,-22.22235 16.99971,-46.99972 -7.00015,-66.9996 -1.4e-4,-1.2e-4 -2.8e-4,-2.4e-4 -4.3e-4,-3.6e-4 -24.00033,-19.99915 -87.99957,21.00036 -87.99957,21.00036 0,0 -4e-5,4e-5 -1.3e-4,1.1e-4 -0.0927,0.0768 -214.0207,177.07346 -309.99987,515.99989 -2e-5,6e-5 -4e-5,1.2e-4 -6e-5,1.8e-4 -24.00005,69.99984 -89.99994,80.99982 -89.99994,80.99982 0,0 -6e-5,3e-5 -1.8e-4,10e-5 -0.0311,0.0172 -18.02065,9.98688 -41.999818,-5.0001 -4e-5,-3e-5 -8.1e-5,-5e-5 -1.22e-4,-8e-5 -23.999796,-15.00008 1.22e-4,-62.99992 1.22e-4,-62.99992 0,0 3.4e-5,-5e-5 1.02e-4,-1.4e-4 0.01732,-0.0242 10.024204,-14.01462 37.999896,-30.99986 5e-5,-3e-5 1e-4,-6e-5 1.4e-4,-9e-5 28.00013,-16.99987 106.99986,-4.99991 106.99986,-4.99991 0,0 5e-5,2e-5 1.5e-4,5e-5 0.0493,0.0173 57.0081,20.00603 75.99985,33.99995 3e-5,2e-5 7e-5,5e-5 10e-5,7e-5 19.00011,14.00003 80.99995,42.99993 108.9999,44.99993 5e-5,0 10e-5,10e-6 1.4e-4,10e-6 28.00008,2.00004 90.99998,15.99996 162.99986,-2.00001 6e-5,-2e-5 1.2e-4,-3e-5 1.9e-4,-5e-5 71.9998,-17.99996 66.99981,-20.99995 66.99981,-20.99995 0,0 2e-5,-1e-5 6e-5,-1e-5 0.0199,-0.004 23.01209,-5.01692 50.99994,-43.99999"
         style="fill:none;stroke:#ffd100;stroke-width:15;stroke-linecap:butt;stroke-linejoin:miter;stroke-miterlimit:4;stroke-opacity:1;stroke-dasharray:none"
         inkscape:connector-curvature="0" />
      <path
         id="path5467"
         d="m 140.94444,368.40094 c 0,0 78,99 232,103 2e-4,1e-5 3.9e-4,1e-5 5.9e-4,2e-5 153.99955,3.99987 205.99941,-40.00002 205.99941,-40.00002 0,0 9e-5,-5e-5 2.5e-4,-1.4e-4 0.0855,-0.0499 32.97643,-19.22967 41.99975,-42.99986 5e-5,-1.1e-4 9e-5,-2.2e-4 1.3e-4,-3.4e-4 8.43575,-22.22236 16.99975,-46.99976 -7.00013,-66.99966 -1.2e-4,-10e-5 -2.4e-4,-2e-4 -3.6e-4,-3e-4 -24.00029,-19.99928 -87.99963,21.0003 -87.99963,21.0003 0,0 -7e-5,6e-5 -2.1e-4,1.7e-4 -0.13908,0.11512 -214.03105,177.11018 -309.9998,515.99983 -3e-5,9e-5 -6e-5,1.8e-4 -9e-5,2.7e-4 -24.00007,69.99976 -89.99991,80.99973 -89.99991,80.99973 0,0 -9e-5,5e-5 -2.7e-4,1.6e-4 -0.0466,0.0258 -18.03098,9.98031 -41.999727,-5.00016 -6.1e-5,-3e-5 -1.22e-4,-7e-5 -1.83e-4,-1.1e-4 -23.999695,-15.00013 1.83e-4,-62.99989 1.83e-4,-62.99989 0,0 5.1e-5,-7e-5 1.53e-4,-2.1e-4 0.02598,-0.0363 10.036306,-14.02192 37.999844,-30.99979 7e-5,-4e-5 1.5e-4,-8e-5 2.2e-4,-1.3e-4 28.00019,-16.99981 106.99978,-4.99987 106.99978,-4.99987 0,0 8e-5,3e-5 2.2e-4,8e-5 0.0739,0.026 57.01215,20.00904 75.99978,33.99992 5e-5,4e-5 1e-4,7e-5 1.5e-4,1.1e-4 19.00017,14.00004 80.99992,42.9999 108.99985,44.99989 7e-5,10e-6 1.5e-4,10e-6 2.2e-4,2e-5 28.0001,2.00005 90.99997,15.99994 162.99978,-2.00002 9e-5,-2e-5 1.9e-4,-4e-5 2.8e-4,-7e-5 71.99971,-17.99993 66.99972,-20.99993 66.99972,-20.99993 0,0 3e-5,0 9e-5,-2e-5 0.0299,-0.007 23.01814,-5.02537 50.99991,-43.99998"
         style="fill:none;stroke:#ffcf00;stroke-width:15;stroke-linecap:butt;stroke-linejoin:miter;stroke-miterlimit:4;stroke-opacity:1;stroke-dasharray:none"
         inkscape:connector-curvature="0" />
      <path
         id="path5469"
         d="m 141.92592,369.7472 c 0,0 78,99 232,103 1.7e-4,0 3.3e-4,10e-6 4.9e-4,10e-6 153.99962,3.99989 205.99951,-40.00001 205.99951,-40.00001 0,0 7e-5,-4e-5 2.1e-4,-1.2e-4 0.0713,-0.0416 32.97451,-19.22453 41.99979,-42.99988 4e-5,-1e-4 8e-5,-1.9e-4 1.1e-4,-2.8e-4 8.43576,-22.22238 16.99979,-46.99981 -7.00011,-66.99972 -10e-5,-9e-5 -2e-4,-1.7e-4 -3e-4,-2.6e-4 -24.00024,-19.99939 -87.99969,21.00026 -87.99969,21.00026 0,0 -9e-5,7e-5 -2.7e-4,2.2e-4 -0.18544,0.15349 -214.0414,177.14691 -309.99974,515.99978 -4e-5,1.2e-4 -8e-5,2.4e-4 -1.2e-4,3.5e-4 -24.0001,69.99969 -89.99988,80.99965 -89.99988,80.99965 0,0 -1.2e-4,7e-5 -3.6e-4,2e-4 -0.0622,0.0344 -18.0413,9.97376 -41.999636,-5.0002 -8.1e-5,-5e-5 -1.62e-4,-10e-5 -2.44e-4,-1.5e-4 -23.999593,-15.00018 2.44e-4,-62.99985 2.44e-4,-62.99985 0,0 6.8e-5,-10e-5 2.04e-4,-2.9e-4 0.03464,-0.0483 10.048408,-14.02923 37.999792,-30.99971 10e-5,-6e-5 1.9e-4,-1.2e-4 2.9e-4,-1.8e-4 28.00025,-16.99974 106.99971,-4.99982 106.99971,-4.99982 0,0 1e-4,3e-5 2.9e-4,10e-5 0.0986,0.0346 57.01621,20.01205 75.99971,33.9999 7e-5,5e-5 1.3e-4,9e-5 2e-4,1.4e-4 19.00022,14.00005 80.9999,42.99986 108.9998,44.99986 10e-5,0 1.9e-4,10e-6 2.9e-4,2e-5 28.00014,2.00007 90.99996,15.99992 162.99971,-2.00002 1.3e-4,-3e-5 2.5e-4,-6e-5 3.7e-4,-9e-5 71.99962,-17.99992 66.99963,-20.99991 66.99963,-20.99991 0,0 4e-5,-10e-6 1.2e-4,-3e-5 0.0398,-0.009 23.02419,-5.03383 50.99988,-43.99997"
         style="fill:none;stroke:#ffcc00;stroke-width:15;stroke-linecap:butt;stroke-linejoin:miter;stroke-miterlimit:4;stroke-opacity:1;stroke-dasharray:none"
         inkscape:connector-curvature="0" />
      <path
         id="path5471"
         d="m 142.90741,371.09345 c 0,0 78,99 232,103 1.3e-4,10e-6 2.6e-4,10e-6 3.9e-4,10e-6 153.99969,3.99992 205.99961,-40.00001 205.99961,-40.00001 0,0 5e-5,-3e-5 1.6e-4,-1e-4 0.057,-0.0332 32.97259,-19.21938 41.99984,-42.9999 2e-5,-7e-5 5e-5,-1.5e-4 8e-5,-2.2e-4 8.43576,-22.2224 16.99983,-46.99985 -7.00008,-66.99978 -9e-5,-7e-5 -1.7e-4,-1.3e-4 -2.5e-4,-2e-4 -24.00019,-19.99952 -87.99975,21.0002 -87.99975,21.0002 0,0 -1.1e-4,10e-5 -3.4e-4,2.8e-4 -0.2318,0.19187 -214.05175,177.18364 -309.99966,515.99972 -6e-5,1.5e-4 -1.1e-4,3e-4 -1.6e-4,4.5e-4 -24.00012,69.9996 -89.99984,80.99955 -89.99984,80.99955 0,0 -1.6e-4,9e-5 -4.6e-4,2.6e-4 -0.0777,0.0429 -18.05163,9.96719 -41.999544,-5.00026 -1.02e-4,-6e-5 -2.04e-4,-1.2e-4 -3.06e-4,-1.9e-4 -23.999491,-15.00021 3.06e-4,-62.99981 3.06e-4,-62.99981 0,0 8.4e-5,-1.2e-4 2.54e-4,-3.5e-4 0.0433,-0.0604 10.060509,-14.03654 37.99975,-30.99965 1.1e-4,-7e-5 2.3e-4,-1.4e-4 3.5e-4,-2.1e-4 28.00032,-16.99969 106.99965,-4.99979 106.99965,-4.99979 0,0 1.2e-4,4e-5 3.6e-4,1.3e-4 0.12325,0.0433 57.02025,20.01506 75.99964,33.99987 8e-5,6e-5 1.6e-4,1.2e-4 2.4e-4,1.8e-4 19.00028,14.00007 80.99987,42.99983 108.99976,44.99982 1.1e-4,1e-5 2.3e-4,2e-5 3.5e-4,3e-5 28.00018,2.00009 90.99995,15.9999 162.99965,-2.00003 1.5e-4,-4e-5 3e-4,-7e-5 4.5e-4,-1.1e-4 71.99952,-17.9999 66.99955,-20.99989 66.99955,-20.99989 0,0 4e-5,-10e-6 1.4e-4,-3e-5 0.0498,-0.0109 23.03024,-5.04229 50.99986,-43.99997"
         style="fill:none;stroke:#ffca00;stroke-width:15;stroke-linecap:butt;stroke-linejoin:miter;stroke-miterlimit:4;stroke-opacity:1;stroke-dasharray:none"
         inkscape:connector-curvature="0" />
      <path
         id="path5473"
         d="m 143.88889,372.43971 c 0,0 78,99 232,103 9e-5,0 1.9e-4,0 2.9e-4,0 153.99977,3.99994 205.99971,-40 205.99971,-40 0,0 4e-5,-3e-5 1.2e-4,-8e-5 0.0428,-0.0249 32.97067,-19.21424 41.99988,-42.99992 2e-5,-6e-5 4e-5,-1.2e-4 6e-5,-1.7e-4 8.43577,-22.22241 16.99988,-46.99988 -7.00006,-66.99983 -6e-5,-5e-5 -1.3e-4,-1.1e-4 -1.9e-4,-1.6e-4 -24.00014,-19.99963 -87.99981,21.00016 -87.99981,21.00016 0,0 -1.3e-4,1.1e-4 -4e-4,3.3e-4 -0.27817,0.23024 -214.0621,177.22037 -309.9996,515.99967 -6e-5,1.7e-4 -1.3e-4,3.5e-4 -1.9e-4,5.3e-4 -24.00015,69.99952 -89.99981,80.99947 -89.99981,80.99947 0,0 -1.9e-4,10e-5 -5.5e-4,3e-4 -0.0933,0.0515 -18.06195,9.96063 -41.999453,-5.0003 -1.22e-4,-8e-5 -2.44e-4,-1.6e-4 -3.67e-4,-2.3e-4 -23.999389,-15.00026 3.67e-4,-62.99977 3.67e-4,-62.99977 0,0 1.01e-4,-1.5e-4 3.05e-4,-4.3e-4 0.05196,-0.0725 10.072611,-14.04384 37.999698,-30.99957 1.4e-4,-9e-5 2.8e-4,-1.8e-4 4.2e-4,-2.6e-4 28.00038,-16.99962 106.99958,-4.99974 106.99958,-4.99974 0,0 1.4e-4,5e-5 4.3e-4,1.5e-4 0.14791,0.0519 57.02431,20.01808 75.99957,33.99985 9e-5,7e-5 1.9e-4,1.4e-4 2.9e-4,2.1e-4 19.00034,14.00008 80.99985,42.9998 108.99971,44.99979 1.4e-4,10e-6 2.8e-4,2e-5 4.2e-4,3e-5 28.00022,2.00011 90.99994,15.99988 162.99958,-2.00003 1.8e-4,-5e-5 3.6e-4,-9e-5 5.5e-4,-1.4e-4 71.99942,-17.99988 66.99945,-20.99986 66.99945,-20.99986 0,0 6e-5,-2e-5 1.7e-4,-4e-5 0.0597,-0.0131 23.03628,-5.05074 50.99983,-43.99996"
         style="fill:none;stroke:#ffc700;stroke-width:15;stroke-linecap:butt;stroke-linejoin:miter;stroke-miterlimit:4;stroke-opacity:1;stroke-dasharray:none"
         inkscape:connector-curvature="0" />
      <path
         id="path5475"
         d="m 144.87037,373.78596 c 0,0 78,99 232,103 6e-5,0 1.3e-4,0 1.9e-4,1e-5 153.99985,3.99995 205.99981,-40.00001 205.99981,-40.00001 0,0 3e-5,-2e-5 8e-5,-5e-5 0.0285,-0.0166 32.96875,-19.2091 41.99992,-42.99995 10e-6,-4e-5 3e-5,-7e-5 4e-5,-1.1e-4 8.43578,-22.22242 16.99992,-46.99992 -7.00004,-66.99989 -4e-5,-3e-5 -8e-5,-7e-5 -1.2e-4,-10e-5 -24.0001,-19.99976 -87.99987,21.0001 -87.99987,21.0001 0,0 -1.6e-4,1.3e-4 -4.8e-4,3.9e-4 -0.32452,0.26861 -214.07245,177.2571 -309.99953,515.99961 -7e-5,2.1e-4 -1.4e-4,4.2e-4 -2.2e-4,6.2e-4 -24.00017,69.99945 -89.99978,80.99938 -89.99978,80.99938 0,0 -2.2e-4,1.2e-4 -6.4e-4,3.6e-4 -0.10881,0.0601 -18.07228,9.95407 -41.999362,-5.00036 -1.43e-4,-9e-5 -2.85e-4,-1.8e-4 -4.27e-4,-2.7e-4 -23.999288,-15.0003 4.27e-4,-62.99973 4.27e-4,-62.99973 0,0 1.18e-4,-1.7e-4 3.56e-4,-5e-4 0.06062,-0.0846 10.084713,-14.05115 37.999646,-30.9995 1.6e-4,-1e-4 3.3e-4,-2e-4 5e-4,-3e-4 28.00044,-16.99956 106.9995,-4.9997 106.9995,-4.9997 0,0 1.7e-4,6e-5 5e-4,1.8e-4 0.17256,0.0606 57.02836,20.02109 75.9995,33.99982 1.1e-4,8e-5 2.2e-4,1.7e-4 3.4e-4,2.5e-4 19.00039,14.0001 80.99982,42.99976 108.99966,44.99975 1.6e-4,10e-6 3.3e-4,2e-5 5e-4,4e-5 28.00025,2.00013 90.99993,15.99985 162.9995,-2.00004 2.1e-4,-5e-5 4.3e-4,-1.1e-4 6.4e-4,-1.6e-4 71.99933,-17.99986 66.99936,-20.99984 66.99936,-20.99984 0,0 7e-5,-1e-5 2e-4,-4e-5 0.0697,-0.0153 23.04233,-5.0592 50.9998,-43.99996"
         style="fill:none;stroke:#ffc500;stroke-width:15;stroke-linecap:butt;stroke-linejoin:miter;stroke-miterlimit:4;stroke-opacity:1;stroke-dasharray:none"
         inkscape:connector-curvature="0" />
      <path
         id="path5477"
         d="m 145.85185,375.13222 c 0,0 78,99 232,103 3e-5,0 6e-5,0 10e-5,0 153.99992,3.99998 205.9999,-40 205.9999,-40 0,0 10e-6,-1e-5 4e-5,-3e-5 0.0143,-0.008 32.96683,-19.20396 41.99996,-42.99997 10e-6,-2e-5 10e-6,-4e-5 2e-5,-6e-5 8.43578,-22.22244 16.99996,-46.99996 -7.00002,-66.99994 -2e-5,-2e-5 -4e-5,-4e-5 -6e-5,-6e-5 -24.00005,-19.99987 -87.99993,21.00006 -87.99993,21.00006 0,0 -1.8e-4,1.5e-4 -5.5e-4,4.5e-4 -0.37088,0.30697 -214.08279,177.29382 -309.99946,515.99955 -8e-5,2.3e-4 -1.6e-4,4.7e-4 -2.5e-4,7.1e-4 -24.0002,69.99936 -89.99975,80.99929 -89.99975,80.99929 0,0 -2.5e-4,1.3e-4 -7.3e-4,4e-4 -0.12435,0.0687 -18.0826,9.94751 -41.999271,-5.0004 -1.63e-4,-1.1e-4 -3.26e-4,-2.1e-4 -4.88e-4,-3.1e-4 -23.999187,-15.00035 4.88e-4,-62.99969 4.88e-4,-62.99969 0,0 1.36e-4,-1.9e-4 4.07e-4,-5.7e-4 0.06928,-0.0967 10.096815,-14.05846 37.999594,-30.99943 1.9e-4,-1.2e-4 3.8e-4,-2.4e-4 5.7e-4,-3.5e-4 28.0005,-16.99949 106.99943,-4.99965 106.99943,-4.99965 0,0 1.9e-4,6e-5 5.8e-4,2e-4 0.19721,0.0692 57.0324,20.0241 75.99942,33.9998 1.3e-4,9e-5 2.6e-4,1.9e-4 3.9e-4,2.8e-4 19.00045,14.00011 80.9998,42.99973 108.99961,44.99972 1.9e-4,1e-5 3.8e-4,2e-5 5.7e-4,4e-5 28.00028,2.00015 90.99992,15.99983 162.99943,-2.00004 2.4e-4,-7e-5 4.9e-4,-1.3e-4 7.3e-4,-1.9e-4 71.99923,-17.99983 66.99927,-20.99981 66.99927,-20.99981 0,0 8e-5,-2e-5 2.3e-4,-6e-5 0.0797,-0.0174 23.04838,-5.06765 50.99977,-43.99994"
         style="fill:none;stroke:#ffc200;stroke-width:15;stroke-linecap:butt;stroke-linejoin:miter;stroke-miterlimit:4;stroke-opacity:1;stroke-dasharray:none"
         inkscape:connector-curvature="0" />
      <path
         id="path5479"
         d="m 146.83333,376.47847 c 0,0 78,99 232,103 0,0 0,0 0,0 154,4 206,-40 206,-40 0,0 0,0 0,0 0,0 32.96491,-19.19882 42,-43 0,0 0,0 0,0 8.43579,-22.22245 17,-47 -7,-67 0,0 0,0 0,0 -24,-20 -87.99999,21 -87.99999,21 0,0 -2e-4,1.7e-4 -6.1e-4,5.1e-4 -0.41725,0.34535 -214.09315,177.33054 -309.9994,515.99949 -9e-5,2.7e-4 -1.8e-4,5.3e-4 -2.7e-4,8e-4 -24.00023,69.99928 -89.99973,80.9992 -89.99973,80.9992 0,0 -2.7e-4,1.5e-4 -8.2e-4,4.6e-4 -0.1399,0.0773 -18.09293,9.94095 -41.99918,-5.00046 -1.83e-4,-1.1e-4 -3.66e-4,-2.3e-4 -5.49e-4,-3.4e-4 -23.999085,-15.00039 5.49e-4,-62.99966 5.49e-4,-62.99966 0,0 1.53e-4,-2.1e-4 4.58e-4,-6.4e-4 0.07794,-0.10878 10.108917,-14.06577 37.999542,-30.99936 2.1e-4,-1.3e-4 4.3e-4,-2.6e-4 6.4e-4,-3.9e-4 28.00057,-16.99943 106.99936,-4.99961 106.99936,-4.99961 0,0 2.2e-4,8e-5 6.5e-4,2.3e-4 0.22186,0.0779 57.03646,20.02711 75.99935,33.99977 1.4e-4,1.1e-4 2.9e-4,2.1e-4 4.3e-4,3.2e-4 19.00052,14.00012 80.99978,42.9997 108.99957,44.99968 2.1e-4,2e-5 4.3e-4,3e-5 6.4e-4,5e-5 28.00032,2.00016 90.99991,15.99981 162.99936,-2.00005 2.7e-4,-7e-5 5.5e-4,-1.4e-4 8.2e-4,-2.1e-4 71.99914,-17.99981 66.99918,-20.99979 66.99918,-20.99979 0,0 9e-5,-2e-5 2.6e-4,-6e-5 0.0896,-0.0196 23.05443,-5.07611 50.99974,-43.99994"
         style="fill:none;stroke:#ffc000;stroke-width:15;stroke-linecap:butt;stroke-linejoin:miter;stroke-miterlimit:4;stroke-opacity:1;stroke-dasharray:none"
         inkscape:connector-curvature="0" />
    </g>
  </g>
</svg>
